<svg xmlns="http://www.w3.org/2000/svg" width="197.106" height="365.005" viewBox="0 0 197.106 365.005">
  <g id="Group_75496" data-name="Group 75496" transform="translate(-17690.26 -2252.09)">
    <path id="Path_38770" data-name="Path 38770" d="M415.3,335.962l13.776,18.2,17.866-24.031-1.673-91.59-16.444-22.3-13.567,18.694-21.271-8.916-2.141,22.341-23.069,2.718,9.494,20.576-18.293,13.8,18.51,13.5-9.351,20.911,22.483,2.509,2.785,22.584Zm13.785,20.752-14.3-18.862-21.672,9.385-2.886-23.42-23.37-2.618,9.7-21.747L357.4,285.5l18.954-14.295-9.837-21.4,23.914-2.827,2.225-23.178,22.074,9.251,14.1-19.405,17.975,24.382v.243l1.673,92.351-.159.209Z" transform="translate(17431.492 2146.592)" fill="#cabaa0"/>
    <path id="Path_38771" data-name="Path 38771" d="M916.885,117.15l21.9,27.134-10.957,14.01-16.645-6.834Z" transform="translate(16914.666 2207.1)" fill="#dbac60" fill-rule="evenodd"/>
    <path id="Path_38772" data-name="Path 38772" d="M890.548,164.126l-2.016,17.758-18.251,2.233L857.86,152.09Z" transform="translate(16923.387 2201.385)" fill="#dbac60" fill-rule="evenodd"/>
    <path id="Path_38773" data-name="Path 38773" d="M857.887,204.75l-34.637,5.621,27.1,22,14.521-10.832Z" transform="translate(16929.049 2192.771)" fill="#dbac60" fill-rule="evenodd"/>
    <path id="Path_38774" data-name="Path 38774" d="M850.411,254.25,823.57,276.1l34.319,5.788,7.235-16.645Z" transform="translate(16928.996 2184.675)" fill="#dbac60" fill-rule="evenodd"/>
    <path id="Path_38775" data-name="Path 38775" d="M888.234,303.458,870.326,301.3,858.49,333.653l32.3-12.145Z" transform="translate(16923.285 2176.98)" fill="#dbac60" fill-rule="evenodd"/>
    <path id="Path_38776" data-name="Path 38776" d="M928.313,325.68l-17.063,6.825,5.713,33.876L938.7,340.167Z" transform="translate(16914.654 2172.992)" fill="#dbac60" fill-rule="evenodd"/>
    <path id="Path_38777" data-name="Path 38777" d="M345.376,179.185l34.093,14.763,4.383-36.151-12.48-18.828H347.843L335.757,159.3Zm35.373,16.98-36.5-15.8L334,159.228l12.948-21.8h25.235l13.241,19.983Z" transform="translate(17435.32 2159.058)" fill="#cabaa0"/>
    <path id="Path_38778" data-name="Path 38778" d="M282.174,227.928l18.761,12.588,36.452-4.408-14.412-33.775-20.284-9.954-20.384,11.944Zm18.4,14.178L280.66,228.723,280.8,203.4l21.89-12.756L324.2,201.213l15.441,36.176Z" transform="translate(17444.043 2150.355)" fill="#cabaa0"/>
    <path id="Path_38779" data-name="Path 38779" d="M269.2,315.367l22.542,1.514L321.1,294.833l-29.367-22.04L269.2,274.382l-11.71,20.509Zm23.01,3.078-23.939-1.606L255.72,294.833l12.547-21.99,23.939-1.623.226.176,31.224,23.42Z" transform="translate(17448.123 2137.175)" fill="#cabaa0"/>
    <path id="Path_38780" data-name="Path 38780" d="M282.32,384.6l20.367,11.9,20.267-9.945,14.429-33.742-36.452-4.433-18.761,12.547Zm20.367,13.642-21.9-12.806-.159-25.327,19.916-13.341,39.053,4.718-15.441,36.176Z" transform="translate(17444.049 2124.818)" fill="#cabaa0"/>
    <path id="Path_38781" data-name="Path 38781" d="M347.659,448.479l23.638.151,12.547-18.761-4.408-36.452L345.71,407.828,335.757,428.1Zm24.449,1.673-25.327-.159L334,428.162l10.556-21.522.259-.117L380.732,391.2l4.718,39.053Z" transform="translate(17435.32 2117.551)" fill="#cabaa0"/>
    <path id="Path_38782" data-name="Path 38782" d="M416.2,146.792l35.055,46.3V105.4l-33.55,18.87Zm36.586,50.864L414.63,147.3v-.284l1.589-23.629,36.552-20.568Z" transform="translate(17422.131 2164.719)" fill="#cabaa0"/>
    <path id="Path_38783" data-name="Path 38783" d="M417.708,456.058l33.55,19.071V386.792L416.2,433.516Zm35.08,21.706-36.552-20.777-1.606-23.931.176-.226,37.983-50.63Z" transform="translate(17422.131 2119.023)" fill="#cabaa0"/>
    <rect id="Rectangle_8680" data-name="Rectangle 8680" width="1.531" height="23.312" transform="matrix(0.592, -0.806, 0.806, 0.592, 17789.65, 2432.65)" fill="#c3c3c3"/>
    <path id="Path_38784" data-name="Path 38784" d="M785.172,282.554l-17.716-3.973-18.377-32.27,1.33-.761,18.05,31.684,17.047,3.823Z" transform="translate(16941.18 2186.098)" fill="#c3c3c3"/>
    <rect id="Rectangle_8681" data-name="Rectangle 8681" width="1.531" height="23.312" transform="matrix(0.592, -0.806, 0.806, 0.592, 17789.65, 2432.65)" fill="#c3c3c3"/>
    <path id="Path_38785" data-name="Path 38785" d="M785.172,282.554l-17.716-3.973-18.377-32.27,1.33-.761,18.05,31.684,17.047,3.823Z" transform="translate(16941.18 2186.098)" fill="#c3c3c3"/>
    <path id="Path_38786" data-name="Path 38786" d="M766.4,246.621h-.017V245.09Z" transform="translate(16938.35 2186.173)" fill="#c3c3c3"/>
    <path id="Path_38787" data-name="Path 38787" d="M801.851,269.5,777.912,267.9,765.6,246.265l1.338-.761,11.9,20.919,22.542,1.506L831.57,245.27l.92,1.23Z" transform="translate(16938.479 2186.144)" fill="#c3c3c3"/>
    <path id="Path_38788" data-name="Path 38788" d="M902.578,287.083l-24.2-2.668,9.786-22.274,1.4.611-8.942,20.367,22.124,2.442Z" transform="translate(16920.031 2183.385)" fill="#c3c3c3"/>
    <path id="Path_38789" data-name="Path 38789" d="M909.151,315.324,906.5,291.117l1.522-.167,2.426,22.124,20.384-8.967.619,1.405Z" transform="translate(16915.432 2178.673)" fill="#c3c3c3"/>
    <path id="Path_38790" data-name="Path 38790" d="M776.059,337.638l-.209-37.113,13.35-12.3,1.037,1.121-12.856,11.844.209,36.435Z" transform="translate(16936.801 2179.117)" fill="#c3c3c3"/>
    <path id="Path_38791" data-name="Path 38791" d="M776.059,337.638l-.209-37.113,13.35-12.3,1.037,1.121-12.856,11.844.209,36.435Z" transform="translate(16936.801 2179.117)" fill="#c3c3c3"/>
    <path id="Path_38792" data-name="Path 38792" d="M791.327,339.651h-.017V338.12Z" transform="translate(16934.273 2170.957)" fill="#c3c3c3"/>
    <path id="Path_38793" data-name="Path 38793" d="M790.389,331.564l-.159-24.892,19.916-13.341,38.033,4.6-.184,1.514-37.464-4.525-18.761,12.572.151,24.064Z" transform="translate(16934.449 2178.283)" fill="#c3c3c3"/>
    <path id="Path_38794" data-name="Path 38794" d="M808.611,366.585,776.55,347.832l.778-1.322,31.467,18.41,16.662-5.211.46,1.464Z" transform="translate(16936.688 2169.585)" fill="#c3c3c3"/>
    <path id="Path_38795" data-name="Path 38795" d="M808.611,366.585,776.55,347.832l.778-1.322,31.467,18.41,16.662-5.211.46,1.464Z" transform="translate(16936.688 2169.585)" fill="#c3c3c3"/>
    <path id="Path_38796" data-name="Path 38796" d="M791.327,339.651h-.017V338.12Z" transform="translate(16934.273 2170.957)" fill="#c3c3c3"/>
    <path id="Path_38797" data-name="Path 38797" d="M812.341,345.777,790.87,333.214l.77-1.322,20.769,12.145,20.267-9.945,14.813-34.712,1.414.6-15.039,35.231Z" transform="translate(16934.344 2177.294)" fill="#c3c3c3"/>
    <path id="Path_38798" data-name="Path 38798" d="M888.273,419.805h-.335L851.16,419.6l.008-1.531,36.444.2,11.836-12.856,1.129,1.037Z" transform="translate(16924.482 2159.951)" fill="#c3c3c3"/>
    <path id="Path_38799" data-name="Path 38799" d="M859.425,407.749H859.4V406.21Z" transform="translate(16923.135 2159.82)" fill="#c3c3c3"/>
    <path id="Path_38800" data-name="Path 38800" d="M884.3,396.9l-24.876-.151.008-1.539,24.048.151,12.588-18.753-4.525-37.472,1.514-.184,4.6,38.033Z" transform="translate(16923.133 2170.822)" fill="#c3c3c3"/>
    <path id="Path_38801" data-name="Path 38801" d="M846.711,412.265,827.95,380.2l5.412-17.314,1.464.46-5.211,16.662,18.418,31.475Z" transform="translate(16928.279 2166.906)" fill="#c3c3c3"/>
    <path id="Path_38802" data-name="Path 38802" d="M859.425,407.749H859.4V406.21Z" transform="translate(16923.135 2159.82)" fill="#c3c3c3"/>
    <path id="Path_38803" data-name="Path 38803" d="M856.183,396.252l-12.563-21.48,10.556-21.522.259-.109,34.98-14.922.6,1.405-34.712,14.813-9.945,20.267L857.5,395.474Z" transform="translate(16925.717 2170.941)" fill="#c3c3c3"/>
    <path id="Path_38804" data-name="Path 38804" d="M937.845,457.212,912.651,423.88l-3.982-17.716,1.5-.335L914,422.885l24.6,33Z" transform="translate(16915.076 2159.883)" fill="#c3c3c3"/>
    <path id="Path_38805" data-name="Path 38805" d="M970.368,425.907,925.836,400.6l-1.606-23.947.167-.226L973.6,310.83l1.229.92-49.04,65.368,1.514,22.55,43.821,24.909Z" transform="translate(16912.531 2175.421)" fill="#c3c3c3"/>
    <path id="Path_38806" data-name="Path 38806" d="M949.64,326.266l-14.42-19.648,1.238-.912,13.182,17.975,18.209-24.491,1.23.912Z" transform="translate(16910.734 2177.325)" fill="#c3c3c3"/>
    <rect id="Rectangle_8682" data-name="Rectangle 8682" width="23.303" height="1.531" transform="translate(17789.65 2431.415) rotate(-36.23)" fill="#c3c3c3"/>
    <path id="Path_38807" data-name="Path 38807" d="M750.41,239.227l-1.33-.761,18.377-32.245,17.716-3.981.335,1.5-17.047,3.831Z" transform="translate(16941.18 2193.182)" fill="#c3c3c3"/>
    <rect id="Rectangle_8683" data-name="Rectangle 8683" width="23.303" height="1.531" transform="translate(17789.65 2431.415) rotate(-36.23)" fill="#c3c3c3"/>
    <path id="Path_38808" data-name="Path 38808" d="M750.41,239.227l-1.33-.761,18.377-32.245,17.716-3.981.335,1.5-17.047,3.831Z" transform="translate(16941.18 2193.182)" fill="#c3c3c3"/>
    <path id="Path_38809" data-name="Path 38809" d="M766.4,246.621h-.017V245.09Z" transform="translate(16938.35 2186.173)" fill="#c3c3c3"/>
    <path id="Path_38810" data-name="Path 38810" d="M831.57,242l-30.187-22.659-22.542,1.531-11.9,20.894-1.338-.761L777.912,219.4l23.939-1.623.226.167,30.413,22.826Z" transform="translate(16938.479 2190.64)" fill="#c3c3c3"/>
    <path id="Path_38811" data-name="Path 38811" d="M888.166,225.018l-9.786-22.3,24.2-2.668.167,1.531-22.124,2.434,8.942,20.384Z" transform="translate(16920.031 2193.54)" fill="#c3c3c3"/>
    <path id="Path_38812" data-name="Path 38812" d="M908.022,196.294l-1.522-.159,2.651-24.215,22.3,9.828-.619,1.405-20.384-8.983Z" transform="translate(16915.432 2198.141)" fill="#c3c3c3"/>
    <path id="Path_38813" data-name="Path 38813" d="M789.2,194.144l-13.35-12.3V181.5l.209-36.795,1.531.008-.209,36.46,12.856,11.836Z" transform="translate(16936.801 2202.592)" fill="#c3c3c3"/>
    <path id="Path_38814" data-name="Path 38814" d="M789.2,194.144l-13.35-12.3V181.5l.209-36.795,1.531.008-.209,36.46,12.856,11.836Z" transform="translate(16936.801 2202.592)" fill="#c3c3c3"/>
    <path id="Path_38815" data-name="Path 38815" d="M791.327,153.591h-.017V152.06Z" transform="translate(16934.273 2201.39)" fill="#c3c3c3"/>
    <path id="Path_38816" data-name="Path 38816" d="M810.146,191.22,790.23,177.862l.159-24.892,1.531.008-.151,24.073,18.761,12.58,37.464-4.525.184,1.522Z" transform="translate(16934.449 2201.241)" fill="#c3c3c3"/>
    <path id="Path_38817" data-name="Path 38817" d="M777.328,141.588l-.778-1.322,32.061-18.736,17.306,5.412-.46,1.464-16.662-5.211Z" transform="translate(16936.688 2206.383)" fill="#c3c3c3"/>
    <path id="Path_38818" data-name="Path 38818" d="M777.328,141.588l-.778-1.322,32.061-18.736,17.306,5.412-.46,1.464-16.662-5.211Z" transform="translate(16936.688 2206.383)" fill="#c3c3c3"/>
    <path id="Path_38819" data-name="Path 38819" d="M791.327,153.591h-.017V152.06Z" transform="translate(16934.273 2201.39)" fill="#c3c3c3"/>
    <path id="Path_38820" data-name="Path 38820" d="M847.489,183.584l-14.813-34.712-20.267-9.962L791.64,151.055l-.77-1.322,21.471-12.563,21.522,10.573L848.9,182.982Z" transform="translate(16934.344 2203.825)" fill="#c3c3c3"/>
    <path id="Path_38821" data-name="Path 38821" d="M899.448,83.8,887.612,70.931l-36.444.209-.008-1.531,37.113-.209,12.3,13.366Z" transform="translate(16924.482 2214.91)" fill="#c3c3c3"/>
    <path id="Path_38822" data-name="Path 38822" d="M859.425,85.5H859.4V83.96Z" transform="translate(16923.135 2212.528)" fill="#c3c3c3"/>
    <path id="Path_38823" data-name="Path 38823" d="M893.053,141.757l-1.514-.184,4.525-37.472L883.476,85.339l-24.048.134-.008-1.539L884.3,83.8l13.358,19.916Z" transform="translate(16923.133 2212.554)" fill="#c3c3c3"/>
    <path id="Path_38824" data-name="Path 38824" d="M833.362,119.492l-5.412-17.339L846.711,70.1l1.322.778-18.418,31.467,5.211,16.687Z" transform="translate(16928.279 2214.795)" fill="#c3c3c3"/>
    <path id="Path_38825" data-name="Path 38825" d="M859.425,85.5H859.4V83.96Z" transform="translate(16923.135 2212.528)" fill="#c3c3c3"/>
    <path id="Path_38826" data-name="Path 38826" d="M889.415,142.469,854.176,127.43,843.62,105.891,856.183,84.42l1.322.77L845.36,105.958l9.945,20.292,34.712,14.8Z" transform="translate(16925.717 2212.453)" fill="#c3c3c3"/>
    <path id="Path_38827" data-name="Path 38827" d="M910.167,77.152l-1.5-.335L912.651,59.1,962.578,30.88l.753,1.338L914,60.105Z" transform="translate(16915.076 2221.21)" fill="#c3c3c3"/>
    <path id="Path_38828" data-name="Path 38828" d="M967.114,150.127,924.23,93.4l.017-.284,1.589-23.638L966.085,46.91l.753,1.338-39.53,22.157-1.514,22.525L968.335,149.2Z" transform="translate(16912.531 2218.588)" fill="#c3c3c3"/>
    <path id="Path_38829" data-name="Path 38829" d="M966.193,185.331,949.64,163.056l-13.182,17.975-1.238-.9,14.42-19.648,17.783,23.931Z" transform="translate(16910.734 2200.012)" fill="#c3c3c3"/>
  </g>
</svg>
