<svg xmlns="http://www.w3.org/2000/svg" width="197.106" height="365.005" viewBox="0 0 197.106 365.005">
  <g id="Group_75591" data-name="Group 75591" transform="translate(0)">
    <path id="Path_38770" data-name="Path 38770" d="M390.582,335.962l-13.776,18.2-17.866-24.031,1.673-91.59,16.444-22.3,13.567,18.694,21.271-8.916,2.141,22.341,23.069,2.718-9.494,20.576,18.293,13.8-18.51,13.5,9.351,20.911-22.483,2.509-2.785,22.584ZM376.8,356.714l14.3-18.862,21.672,9.385,2.886-23.42,23.37-2.618-9.7-21.747L448.48,285.5l-18.954-14.295,9.837-21.4-23.914-2.827L413.224,223.8l-22.074,9.251-14.1-19.405-17.975,24.382v.243L357.4,330.626l.159.209Z" transform="translate(-350.007 -105.498)" fill="#cabaa0"/>
    <path id="Path_38771" data-name="Path 38771" d="M933.078,117.15l-21.9,27.134,10.957,14.01,16.645-6.834Z" transform="translate(-877.263 -44.99)" fill="#dbac60" fill-rule="evenodd"/>
    <path id="Path_38772" data-name="Path 38772" d="M857.86,164.126l2.016,17.758,18.251,2.233,12.421-32.027Z" transform="translate(-784.429 -50.705)" fill="#dbac60" fill-rule="evenodd"/>
    <path id="Path_38773" data-name="Path 38773" d="M830.234,204.75l34.637,5.621-27.1,22L823.25,221.537Z" transform="translate(-729.805 -59.318)" fill="#dbac60" fill-rule="evenodd"/>
    <path id="Path_38774" data-name="Path 38774" d="M838.283,254.25,865.124,276.1l-34.319,5.788-7.235-16.645Z" transform="translate(-730.325 -67.415)" fill="#dbac60" fill-rule="evenodd"/>
    <path id="Path_38775" data-name="Path 38775" d="M861.049,303.458l17.908-2.158,11.836,32.353-32.3-12.145Z" transform="translate(-785.203 -75.11)" fill="#dbac60" fill-rule="evenodd"/>
    <path id="Path_38776" data-name="Path 38776" d="M921.639,325.68l17.063,6.825-5.713,33.876L911.25,340.167Z" transform="translate(-877.241 -79.098)" fill="#dbac60" fill-rule="evenodd"/>
    <path id="Path_38777" data-name="Path 38777" d="M374.049,179.185l-34.093,14.763L335.573,157.8l12.48-18.828h23.529L383.668,159.3Zm-35.373,16.98,36.5-15.8,10.246-21.137-12.948-21.8H347.241L334,157.413Z" transform="translate(-267.379 -93.032)" fill="#cabaa0"/>
    <path id="Path_38778" data-name="Path 38778" d="M338.132,227.928,319.37,240.517l-36.452-4.408,14.412-33.775,20.284-9.954L338,204.324Zm-18.4,14.178,19.916-13.383L339.5,203.4l-21.89-12.756L296.1,201.213,280.66,237.389Z" transform="translate(-176.983 -101.735)" fill="#cabaa0"/>
    <path id="Path_38779" data-name="Path 38779" d="M310.181,315.367l-22.542,1.514-29.367-22.048,29.367-22.04,22.542,1.589,11.71,20.509Zm-23.01,3.078,23.939-1.606,12.547-22.007-12.547-21.99L287.17,271.22l-.226.176-31.224,23.42Z" transform="translate(-140.133 -114.915)" fill="#cabaa0"/>
    <path id="Path_38780" data-name="Path 38780" d="M337.909,384.6l-20.367,11.9-20.267-9.945-14.429-33.742,36.452-4.433,18.761,12.547Zm-20.367,13.642,21.9-12.806.159-25.327L319.683,346.77l-39.053,4.718,15.441,36.176Z" transform="translate(-176.912 -127.272)" fill="#cabaa0"/>
    <path id="Path_38781" data-name="Path 38781" d="M371.79,448.479l-23.638.151-12.547-18.761,4.408-36.452,33.725,14.412,9.954,20.267Zm-24.449,1.673,25.327-.159,12.781-21.831-10.556-21.522-.259-.117L338.718,391.2,334,430.253Z" transform="translate(-267.404 -134.539)" fill="#cabaa0"/>
    <path id="Path_38782" data-name="Path 38782" d="M451.216,146.792l-35.055,46.3V105.4l33.55,18.87ZM414.63,197.655,452.788,147.3v-.284L451.2,123.388,414.647,102.82Z" transform="translate(-402.184 -87.371)" fill="#cabaa0"/>
    <path id="Path_38783" data-name="Path 38783" d="M449.71,456.058l-33.55,19.071V386.792l35.055,46.723Zm-35.08,21.706,36.552-20.777,1.606-23.931-.176-.226L414.63,382.2Z" transform="translate(-402.184 -133.067)" fill="#cabaa0"/>
    <rect id="Rectangle_8680" data-name="Rectangle 8680" width="1.531" height="23.311" transform="matrix(-0.592, -0.806, 0.806, -0.592, 78.925, 194.357)" fill="#c3c3c3"/>
    <path id="Path_38784" data-name="Path 38784" d="M749.415,282.554l17.716-3.973,18.377-32.27-1.33-.761-18.05,31.684-17.047,3.823Z" transform="translate(-588.401 -65.992)" fill="#c3c3c3"/>
    <rect id="Rectangle_8681" data-name="Rectangle 8681" width="1.531" height="23.311" transform="matrix(-0.592, -0.806, 0.806, -0.592, 78.925, 194.357)" fill="#c3c3c3"/>
    <path id="Path_38785" data-name="Path 38785" d="M749.415,282.554l17.716-3.973,18.377-32.27-1.33-.761-18.05,31.684-17.047,3.823Z" transform="translate(-588.401 -65.992)" fill="#c3c3c3"/>
    <path id="Path_38786" data-name="Path 38786" d="M766.38,246.621h.017V245.09Z" transform="translate(-583.761 -65.917)" fill="#c3c3c3"/>
    <path id="Path_38787" data-name="Path 38787" d="M796.239,269.5l23.939-1.606,12.312-21.63-1.338-.761-11.9,20.919-22.542,1.506L766.52,245.27l-.92,1.23Z" transform="translate(-649.203 -65.946)" fill="#c3c3c3"/>
    <path id="Path_38788" data-name="Path 38788" d="M878.547,287.083l24.2-2.668-9.786-22.274-1.4.611,8.942,20.367L878.38,285.56Z" transform="translate(-813.792 -68.705)" fill="#c3c3c3"/>
    <path id="Path_38789" data-name="Path 38789" d="M928.8,315.324l2.651-24.207-1.522-.167L927.5,313.074l-20.384-8.967-.619,1.405Z" transform="translate(-866.017 -73.417)" fill="#c3c3c3"/>
    <path id="Path_38790" data-name="Path 38790" d="M790.028,337.638l.209-37.113-13.35-12.3-1.037,1.121,12.856,11.844L788.5,337.63Z" transform="translate(-615.522 -72.972)" fill="#c3c3c3"/>
    <path id="Path_38791" data-name="Path 38791" d="M790.028,337.638l.209-37.113-13.35-12.3-1.037,1.121,12.856,11.844L788.5,337.63Z" transform="translate(-615.522 -72.972)" fill="#c3c3c3"/>
    <path id="Path_38792" data-name="Path 38792" d="M791.31,339.651h.017V338.12Z" transform="translate(-629.545 -81.133)" fill="#c3c3c3"/>
    <path id="Path_38793" data-name="Path 38793" d="M848.02,331.564l.159-24.892L828.263,293.33l-38.033,4.6.184,1.514,37.464-4.525,18.761,12.572-.151,24.064Z" transform="translate(-685.492 -73.807)" fill="#c3c3c3"/>
    <path id="Path_38794" data-name="Path 38794" d="M793.856,366.585l32.061-18.753-.778-1.322-31.467,18.41-16.662-5.211-.46,1.464Z" transform="translate(-651.789 -82.505)" fill="#c3c3c3"/>
    <path id="Path_38795" data-name="Path 38795" d="M793.856,366.585l32.061-18.753-.778-1.322-31.467,18.41-16.662-5.211-.46,1.464Z" transform="translate(-651.789 -82.505)" fill="#c3c3c3"/>
    <path id="Path_38796" data-name="Path 38796" d="M791.31,339.651h.017V338.12Z" transform="translate(-629.545 -81.133)" fill="#c3c3c3"/>
    <path id="Path_38797" data-name="Path 38797" d="M827.431,345.777,848.9,333.214l-.77-1.322-20.769,12.145L807.1,334.092,792.284,299.38l-1.414.6,15.039,35.231Z" transform="translate(-686.751 -74.796)" fill="#c3c3c3"/>
    <path id="Path_38798" data-name="Path 38798" d="M863.464,419.805h.335l36.778-.209-.008-1.531-36.444.2L852.289,405.41l-1.129,1.037Z" transform="translate(-788.854 -92.139)" fill="#c3c3c3"/>
    <path id="Path_38799" data-name="Path 38799" d="M859.4,407.749h.025V406.21Z" transform="translate(-754.595 -92.27)" fill="#c3c3c3"/>
    <path id="Path_38800" data-name="Path 38800" d="M872.778,396.9l24.876-.151-.008-1.539-24.048.151-12.588-18.753,4.525-37.472-1.514-.184-4.6,38.033Z" transform="translate(-792.841 -81.268)" fill="#c3c3c3"/>
    <path id="Path_38801" data-name="Path 38801" d="M829.272,412.265,848.033,380.2l-5.412-17.314-1.464.46,5.211,16.662L827.95,411.487Z" transform="translate(-716.897 -85.184)" fill="#c3c3c3"/>
    <path id="Path_38802" data-name="Path 38802" d="M859.4,407.749h.025V406.21Z" transform="translate(-754.595 -92.27)" fill="#c3c3c3"/>
    <path id="Path_38803" data-name="Path 38803" d="M877.454,396.252l12.563-21.48-10.556-21.522-.259-.109-34.98-14.922-.6,1.405,34.712,14.813,9.945,20.267-12.145,20.769Z" transform="translate(-771.989 -81.149)" fill="#c3c3c3"/>
    <path id="Path_38804" data-name="Path 38804" d="M909.423,457.212l25.193-33.332,3.982-17.716-1.5-.335-3.831,17.055-24.6,33Z" transform="translate(-874.979 -92.207)" fill="#c3c3c3"/>
    <path id="Path_38805" data-name="Path 38805" d="M928.7,425.907,973.228,400.6l1.606-23.947-.167-.226L925.459,310.83l-1.229.92,49.04,65.368-1.514,22.55-43.821,24.909Z" transform="translate(-924.23 -76.669)" fill="#c3c3c3"/>
    <path id="Path_38806" data-name="Path 38806" d="M954.659,326.266l14.42-19.648-1.238-.912-13.182,17.975L936.45,299.19l-1.23.912Z" transform="translate(-927.668 -74.765)" fill="#c3c3c3"/>
    <rect id="Rectangle_8682" data-name="Rectangle 8682" width="23.303" height="1.531" transform="translate(96.81 180.56) rotate(-143.77)" fill="#c3c3c3"/>
    <path id="Path_38807" data-name="Path 38807" d="M784.177,239.227l1.33-.761L767.13,206.221l-17.716-3.981-.335,1.5,17.047,3.831Z" transform="translate(-588.401 -58.908)" fill="#c3c3c3"/>
    <rect id="Rectangle_8683" data-name="Rectangle 8683" width="23.303" height="1.531" transform="translate(96.81 180.56) rotate(-143.77)" fill="#c3c3c3"/>
    <path id="Path_38808" data-name="Path 38808" d="M784.177,239.227l1.33-.761L767.13,206.221l-17.716-3.981-.335,1.5,17.047,3.831Z" transform="translate(-588.401 -58.908)" fill="#c3c3c3"/>
    <path id="Path_38809" data-name="Path 38809" d="M766.38,246.621h.017V245.09Z" transform="translate(-583.761 -65.917)" fill="#c3c3c3"/>
    <path id="Path_38810" data-name="Path 38810" d="M766.52,242l30.187-22.659,22.542,1.531,11.9,20.894,1.338-.761L820.178,219.4l-23.939-1.623-.226.167L765.6,240.774Z" transform="translate(-649.203 -61.449)" fill="#c3c3c3"/>
    <path id="Path_38811" data-name="Path 38811" d="M892.959,225.018l9.786-22.3-24.2-2.668-.167,1.531,22.124,2.434L891.562,224.4Z" transform="translate(-813.792 -58.55)" fill="#c3c3c3"/>
    <path id="Path_38812" data-name="Path 38812" d="M929.929,196.294l1.522-.159L928.8,171.92l-22.3,9.828.619,1.405L927.5,174.17Z" transform="translate(-866.017 -53.949)" fill="#c3c3c3"/>
    <path id="Path_38813" data-name="Path 38813" d="M776.887,194.144l13.35-12.3V181.5l-.209-36.795-1.531.008.209,36.46L775.85,193.014Z" transform="translate(-615.522 -49.498)" fill="#c3c3c3"/>
    <path id="Path_38814" data-name="Path 38814" d="M776.887,194.144l13.35-12.3V181.5l-.209-36.795-1.531.008.209,36.46L775.85,193.014Z" transform="translate(-615.522 -49.498)" fill="#c3c3c3"/>
    <path id="Path_38815" data-name="Path 38815" d="M791.31,153.591h.017V152.06Z" transform="translate(-629.545 -50.7)" fill="#c3c3c3"/>
    <path id="Path_38816" data-name="Path 38816" d="M828.263,191.22l19.916-13.358-.159-24.892-1.531.008.151,24.073-18.761,12.58-37.464-4.525-.184,1.522Z" transform="translate(-685.492 -50.849)" fill="#c3c3c3"/>
    <path id="Path_38817" data-name="Path 38817" d="M825.139,141.588l.778-1.322L793.856,121.53l-17.306,5.412.46,1.464,16.662-5.211Z" transform="translate(-651.789 -45.707)" fill="#c3c3c3"/>
    <path id="Path_38818" data-name="Path 38818" d="M825.139,141.588l.778-1.322L793.856,121.53l-17.306,5.412.46,1.464,16.662-5.211Z" transform="translate(-651.789 -45.707)" fill="#c3c3c3"/>
    <path id="Path_38819" data-name="Path 38819" d="M791.31,153.591h.017V152.06Z" transform="translate(-629.545 -50.7)" fill="#c3c3c3"/>
    <path id="Path_38820" data-name="Path 38820" d="M792.284,183.584,807.1,148.872l20.267-9.962,20.769,12.145.77-1.322L827.431,137.17l-21.522,10.573L790.87,182.982Z" transform="translate(-686.751 -48.265)" fill="#c3c3c3"/>
    <path id="Path_38821" data-name="Path 38821" d="M852.289,83.8l11.836-12.873,36.444.209.008-1.531L863.464,69.4l-12.3,13.366Z" transform="translate(-788.854 -37.18)" fill="#c3c3c3"/>
    <path id="Path_38822" data-name="Path 38822" d="M859.4,85.5h.025V83.96Z" transform="translate(-754.595 -39.562)" fill="#c3c3c3"/>
    <path id="Path_38823" data-name="Path 38823" d="M864.02,141.757l1.514-.184L861.009,104.1,873.6,85.339l24.048.134.008-1.539L872.778,83.8,859.42,103.716Z" transform="translate(-792.841 -39.536)" fill="#c3c3c3"/>
    <path id="Path_38824" data-name="Path 38824" d="M842.621,119.492l5.412-17.339L829.272,70.1l-1.322.778,18.418,31.467-5.211,16.687Z" transform="translate(-716.897 -37.295)" fill="#c3c3c3"/>
    <path id="Path_38825" data-name="Path 38825" d="M859.4,85.5h.025V83.96Z" transform="translate(-754.595 -39.562)" fill="#c3c3c3"/>
    <path id="Path_38826" data-name="Path 38826" d="M844.222,142.469l35.239-15.039,10.556-21.538L877.454,84.42l-1.322.77,12.145,20.769-9.945,20.292-34.712,14.8Z" transform="translate(-771.989 -39.637)" fill="#c3c3c3"/>
    <path id="Path_38827" data-name="Path 38827" d="M961.834,77.152l1.5-.335L959.35,59.1,909.423,30.88l-.753,1.338L958,60.105Z" transform="translate(-899.712 -30.88)" fill="#c3c3c3"/>
    <path id="Path_38828" data-name="Path 38828" d="M925.451,150.127,968.335,93.4l-.017-.284-1.589-23.638L926.48,46.91l-.753,1.338,39.53,22.157,1.514,22.525L924.23,149.2Z" transform="translate(-917.731 -33.502)" fill="#c3c3c3"/>
    <path id="Path_38829" data-name="Path 38829" d="M936.45,185.331,953,163.056l13.182,17.975,1.238-.9L953,160.48,935.22,184.411Z" transform="translate(-926.012 -52.077)" fill="#c3c3c3"/>
  </g>
</svg>
