<svg id="Component_271_1" data-name="Component 271 – 1" xmlns="http://www.w3.org/2000/svg" width="264.153" height="264.136" viewBox="0 0 264.153 264.136">
  <path id="Path_38446" data-name="Path 38446" d="M3055.221,757.308H2950.257a27.048,27.048,0,0,1-27.018-27.018V520.368a27.048,27.048,0,0,1,27.018-27.018h209.916a27.051,27.051,0,0,1,27.017,27.018v104.96a2.158,2.158,0,1,1-4.316,0V520.368a22.728,22.728,0,0,0-22.7-22.7H2950.257a22.729,22.729,0,0,0-22.7,22.7V730.29a22.729,22.729,0,0,0,22.7,22.7h104.963a2.158,2.158,0,0,1,0,4.316Z" transform="translate(-2923.24 -493.35)" fill="#ffdc82"/>
  <path id="Path_38447" data-name="Path 38447" d="M3420.8,1013.085H3419a2.336,2.336,0,1,1,0-4.673h1.8a2.336,2.336,0,1,1,0,4.673Zm-19.779,0h-1.8a2.336,2.336,0,0,1,0-4.673h1.8a2.336,2.336,0,1,1,0,4.673Zm-19.779,0h-1.8a2.336,2.336,0,0,1,0-4.673h1.8a2.336,2.336,0,1,1,0,4.673Zm-19.78,0h-1.8a2.336,2.336,0,0,1,0-4.673h1.8a2.336,2.336,0,1,1,0,4.673Zm-19.779,0h-1.8a2.336,2.336,0,1,1,0-4.673h1.8a2.336,2.336,0,0,1,0,4.673Zm97.078-.279a2.336,2.336,0,0,1-.337-4.649c.532-.081,1.071-.182,1.6-.3a2.337,2.337,0,1,1,1.033,4.558c-.639.145-1.289.269-1.932.367A2.494,2.494,0,0,1,3438.763,1012.806Zm16.436-10.06a2.336,2.336,0,0,1-1.892-3.7c.313-.438.619-.892.9-1.347a2.338,2.338,0,0,1,3.979,2.455c-.337.559-.71,1.107-1.091,1.636A2.337,2.337,0,0,1,3455.2,1002.746Zm4.683-18.789a2.357,2.357,0,0,1-2.34-2.337v-1.8a2.34,2.34,0,0,1,4.676,0v1.8a2.337,2.337,0,0,1-2.35,2.337Zm0-19.779a2.357,2.357,0,0,1-2.34-2.337v-1.8a2.34,2.34,0,0,1,4.676,0v1.8a2.336,2.336,0,0,1-2.35,2.337Zm0-19.779a2.337,2.337,0,0,1-2.34-2.337v-1.8a2.34,2.34,0,0,1,4.676,0v1.815a2.337,2.337,0,0,1-2.35,2.32Zm0-19.776a2.357,2.357,0,0,1-2.34-2.34v-1.8a2.34,2.34,0,0,1,4.676,0v1.8a2.356,2.356,0,0,1-2.35,2.34Zm0-19.779a2.357,2.357,0,0,1-2.34-2.34v-1.8a2.34,2.34,0,0,1,4.676,0v1.8a2.356,2.356,0,0,1-2.35,2.34Zm0-19.779a2.356,2.356,0,0,1-2.34-2.34v-1.8a2.34,2.34,0,0,1,4.676,0v1.8a2.356,2.356,0,0,1-2.35,2.34Z" transform="translate(-3198.065 -748.949)" fill="#8c29cc"/>
</svg>
