<svg xmlns="http://www.w3.org/2000/svg" xmlns:xlink="http://www.w3.org/1999/xlink" width="72" height="72" viewBox="0 0 72 72">
  <defs>
    <filter id="Ellipse_6246" x="0" y="0" width="72" height="72" filterUnits="userSpaceOnUse">
      <feOffset dy="3" input="SourceAlpha"/>
      <feGaussianBlur stdDeviation="3" result="blur"/>
      <feFlood flood-opacity="0.161"/>
      <feComposite operator="in" in2="blur"/>
      <feComposite in="SourceGraphic"/>
    </filter>
  </defs>
  <g id="camera" transform="translate(9 6)">
    <g transform="matrix(1, 0, 0, 1, -9, -6)" filter="url(#Ellipse_6246)">
      <circle id="Ellipse_6246-2" data-name="Ellipse 6246" cx="27" cy="27" r="27" transform="translate(9 6)" fill="#fff"/>
    </g>
    <g id="Icon_feather-camera" data-name="Icon feather-camera" transform="translate(15.499 14.5)">
      <path id="Path_39127" data-name="Path 39127" d="M22.586,19.836a1.917,1.917,0,0,1-1.917,1.917H3.417A1.917,1.917,0,0,1,1.5,19.836V9.292A1.917,1.917,0,0,1,3.417,7.375H7.251L9.168,4.5h5.751l1.917,2.875h3.834a1.917,1.917,0,0,1,1.917,1.917Z" fill="none" stroke="#ddaa6b" stroke-linecap="round" stroke-linejoin="round" stroke-width="2"/>
      <path id="Path_39128" data-name="Path 39128" d="M19.668,17.334A3.834,3.834,0,1,1,15.834,13.5a3.834,3.834,0,0,1,3.834,3.834Z" transform="translate(-3.791 -3.249)" fill="none" stroke="#ddaa6b" stroke-linecap="round" stroke-linejoin="round" stroke-width="2"/>
    </g>
  </g>
</svg>
