<svg id="Colored_Line_Quran" data-name="Colored Line / Quran" xmlns="http://www.w3.org/2000/svg" xmlns:xlink="http://www.w3.org/1999/xlink" width="59" height="59" viewBox="0 0 59 59">
  <defs>
    <clipPath id="clip-path">
      <rect id="Colored_Line_Quran_Background_Mask_" data-name="Colored Line / Quran (Background/Mask)" width="59" height="59" fill="none"/>
    </clipPath>
  </defs>
  <g id="Colored_Line_Quran-2" data-name="Colored Line / Quran">
    <rect id="Colored_Line_Quran_Background_Mask_2" data-name="Colored Line / Quran (Background/Mask)" width="59" height="59" fill="none"/>
    <g id="Colored_Line_Quran-3" data-name="Colored Line / Quran" clip-path="url(#clip-path)">
      <path id="Vector" d="M10.386,5.937C6.871,3.6,3.872,2.458,1.229,2.458A1.229,1.229,0,0,1,1.229,0C4.376,0,7.817,1.229,11.739,3.9a1.229,1.229,0,0,1-.676,2.249h0A1.229,1.229,0,0,1,10.386,5.937Z" transform="translate(13.521 12.292)" fill="#2ed9d6"/>
      <path id="Vector-2" data-name="Vector" d="M10.386,5.937A18.265,18.265,0,0,0,1.229,2.458,1.229,1.229,0,0,1,1.229,0C4.155,0,8.088,1.45,11.739,3.9a1.224,1.224,0,1,1-1.352,2.04Z" transform="translate(13.521 18.438)" fill="#2ed9d6"/>
      <path id="Vector-3" data-name="Vector" d="M10.386,5.937A18.265,18.265,0,0,0,1.229,2.458,1.229,1.229,0,1,1,1.229,0C4.155,0,8.088,1.45,11.739,3.9a1.224,1.224,0,1,1-1.352,2.04Z" transform="translate(13.521 24.583)" fill="#2ed9d6"/>
      <path id="Vector-4" data-name="Vector" d="M10.386,5.937A23.932,23.932,0,0,0,1.229,2.458,1.229,1.229,0,1,1,1.229,0,25.493,25.493,0,0,1,11.739,3.9a1.224,1.224,0,1,1-1.352,2.04Z" transform="translate(13.521 30.729)" fill="#2ed9d6"/>
      <path id="Vector-5" data-name="Vector" d="M.5,5.906A1.229,1.229,0,0,1,.544,3.9C4.477,1.229,7.919,0,11.065,0a1.229,1.229,0,1,1,0,2.458c-2.643,0-5.642,1.143-9.157,3.479A1.218,1.218,0,0,1,.5,5.906Z" transform="translate(33.185 12.292)" fill="#2ed9d6"/>
      <path id="Vector-6" data-name="Vector" d="M.5,5.906A1.229,1.229,0,0,1,.544,3.9C4.231,1.438,8.128,0,11.053,0a1.229,1.229,0,0,1,0,2.458A18.265,18.265,0,0,0,1.9,5.937a1.229,1.229,0,0,1-.664.209A1.229,1.229,0,0,1,.5,5.906Z" transform="translate(33.185 18.438)" fill="#2ed9d6"/>
      <path id="Vector-7" data-name="Vector" d="M.5,5.906A1.229,1.229,0,0,1,.544,3.9C4.231,1.438,8.128,0,11.053,0a1.229,1.229,0,0,1,0,2.458A18.265,18.265,0,0,0,1.9,5.937a1.229,1.229,0,0,1-.664.209A1.229,1.229,0,0,1,.5,5.906Z" transform="translate(33.185 24.583)" fill="#2ed9d6"/>
      <path id="Vector-8" data-name="Vector" d="M.5,5.906A1.229,1.229,0,0,1,.544,3.9,25.493,25.493,0,0,1,11.065,0a1.229,1.229,0,1,1,0,2.458A23.932,23.932,0,0,0,1.908,5.937,1.218,1.218,0,0,1,.5,5.906Z" transform="translate(33.185 30.729)" fill="#2ed9d6"/>
      <path id="Vector-9" data-name="Vector" d="M46.711,49.21a1.188,1.188,0,0,1-.321-.044L27.044,43.894,7.7,49.166a1.1,1.1,0,0,1-.319,0,1.228,1.228,0,0,1-1.23-1.228V38.252L.91,36.876a1.252,1.252,0,0,1-.668-.456A1.238,1.238,0,0,1,0,35.646V3.688a1.235,1.235,0,0,1,.113-.551,1.23,1.23,0,0,1,.852-.686,1.176,1.176,0,0,1,.262-.029,1.274,1.274,0,0,1,.3.036l4.622,1.23V1.23A1.231,1.231,0,0,1,7.377,0,38.727,38.727,0,0,1,20.851,2.141a19.836,19.836,0,0,1,6.193,3.515,19.825,19.825,0,0,1,6.191-3.515A38.723,38.723,0,0,1,46.709,0a1.231,1.231,0,0,1,1.23,1.23V3.688l4.622-1.23a1.27,1.27,0,0,1,.269-.029,1.165,1.165,0,0,1,.289.036,1.222,1.222,0,0,1,.5.252,1.231,1.231,0,0,1,.467.971V35.646a1.238,1.238,0,0,1-.241.774,1.252,1.252,0,0,1-.668.456l-5.237,1.376v9.686a1.272,1.272,0,0,1-.115.569,1.234,1.234,0,0,1-.365.451,1.251,1.251,0,0,1-.748.252Zm-1.23-10.257h0L31.75,42.639l13.731,3.688V38.953Zm-36.876,0v7.374l13.731-3.688ZM2.459,5.2V34.7l24.585,6.651L51.627,34.7V5.261l-3.394.885a1.311,1.311,0,0,1-.294,0V31.957a1.231,1.231,0,0,1-1.23,1.23,33.839,33.839,0,0,0-14.266,2.888,18.48,18.48,0,0,0-4.624,2.888,1.238,1.238,0,0,1-.358.246,1.219,1.219,0,0,1-.934,0,1.229,1.229,0,0,1-.356-.232c-.057-.058-6.017-5.79-18.793-5.79a1.231,1.231,0,0,1-1.23-1.23V6.146a1.311,1.311,0,0,1-.294,0ZM8.605,2.458V30.791c8.489.224,14.044,2.763,17.209,4.854V7.841C24.568,6.65,19.641,2.738,8.605,2.458Zm36.876.013c-11.09.279-15.976,4.2-17.209,5.4V35.584c2.593-1.713,8.283-4.619,17.209-4.854Z" transform="translate(2.457 6.146)" fill="#ffc329"/>
    </g>
  </g>
</svg>
