<svg id="Colored_Line_Rub_Al_Hizb" data-name="Colored Line / Rub Al Hizb" xmlns="http://www.w3.org/2000/svg" xmlns:xlink="http://www.w3.org/1999/xlink" width="70" height="70" viewBox="0 0 70 70">
  <defs>
    <clipPath id="clip-path">
      <rect id="Colored_Line_Rub_Al_Hizb_Background_Mask_" data-name="Colored Line / Rub Al Hizb (Background/Mask)" width="70" height="70" fill="none"/>
    </clipPath>
  </defs>
  <g id="Colored_Line_Rub_Al_Hizb-2" data-name="Colored Line / Rub Al Hizb">
    <rect id="Colored_Line_Rub_Al_Hizb_Background_Mask_2" data-name="Colored Line / Rub Al Hizb (Background/Mask)" width="70" height="70" fill="none"/>
    <g id="Colored_Line_Rub_Al_Hizb-3" data-name="Colored Line / Rub Al Hizb" clip-path="url(#clip-path)">
      <path id="Vector" d="M32,64h0a1.447,1.447,0,0,1-1.034-.422l-8.289-8.3h-12.5a1.453,1.453,0,0,1-1.453-1.456V41.324l-8.3-8.292A1.442,1.442,0,0,1,0,32.007a1.458,1.458,0,0,1,.424-1.024l8.3-8.3v-12.5a1.448,1.448,0,0,1,1.453-1.453h12.5l8.3-8.3A1.458,1.458,0,0,1,32.007,0a1.442,1.442,0,0,1,1.026.424l8.292,8.3H53.818a1.453,1.453,0,0,1,1.456,1.453v12.5l8.3,8.3A1.466,1.466,0,0,1,64,32.007a1.449,1.449,0,0,1-.422,1.026l-8.3,8.292V53.818a1.457,1.457,0,0,1-1.456,1.456H41.324l-8.3,8.3A1.482,1.482,0,0,1,32,64ZM11.638,11.638V23.272a1.447,1.447,0,0,1-.422,1.034L3.506,32,11.2,39.7a1.45,1.45,0,0,1,.437,1.032V52.362H23.272a1.464,1.464,0,0,1,.56.11,1.435,1.435,0,0,1,.474.314L32,60.494,39.7,52.8a1.458,1.458,0,0,1,.471-.322,1.519,1.519,0,0,1,.56-.115H52.362V40.728a1.458,1.458,0,0,1,.11-.558,1.383,1.383,0,0,1,.314-.474L60.494,32,52.8,24.307a1.462,1.462,0,0,1-.437-1.034V11.638H40.728a1.505,1.505,0,0,1-.558-.107,1.463,1.463,0,0,1-.474-.314L32,3.506l-7.695,7.71a1.447,1.447,0,0,1-1.034.422Z" transform="translate(3 3)" fill="#ffc329"/>
      <path id="Vector-2" data-name="Vector" d="M20.5,41h0a1.516,1.516,0,0,1-.561-.108,1.488,1.488,0,0,1-.477-.316l-5.419-5.432H7.322a1.462,1.462,0,0,1-1.463-1.465V26.957L.427,21.525A1.451,1.451,0,0,1,0,20.492a1.468,1.468,0,0,1,.427-1.031l5.432-5.419V7.322A1.458,1.458,0,0,1,7.322,5.859h6.721L19.475.427a1.463,1.463,0,0,1,2.066,0l5.416,5.432h6.721a1.462,1.462,0,0,1,1.465,1.463v6.721l5.432,5.432a1.47,1.47,0,0,1,0,2.066l-5.432,5.416v6.721a1.467,1.467,0,0,1-1.465,1.465H26.957l-5.432,5.432A1.453,1.453,0,0,1,20.5,41Zm-5.837-8.785h0a1.457,1.457,0,0,1,1.019.424L20.5,37.471l4.818-4.818a1.5,1.5,0,0,1,.477-.324,1.469,1.469,0,0,1,.561-.113h5.859V26.356a1.416,1.416,0,0,1,.108-.561,1.452,1.452,0,0,1,.316-.477L37.471,20.5l-4.818-4.818a1.468,1.468,0,0,1-.324-.474,1.5,1.5,0,0,1-.113-.564V8.787H26.356a1.515,1.515,0,0,1-.561-.108,1.488,1.488,0,0,1-.477-.316L20.5,3.529,15.682,8.347a1.433,1.433,0,0,1-.474.324,1.482,1.482,0,0,1-.564.116H8.787v5.856a1.516,1.516,0,0,1-.108.561,1.473,1.473,0,0,1-.316.477L3.529,20.5l4.818,4.818a1.44,1.44,0,0,1,.324.477,1.456,1.456,0,0,1,.116.561v5.859h5.876Z" transform="translate(15 15)" fill="#2ed9d6"/>
      <path id="Vector-3" data-name="Vector" d="M6,12a5.993,5.993,0,1,1,4.245-1.755A5.975,5.975,0,0,1,6,12ZM6,3a3,3,0,1,0,2.122.88A2.994,2.994,0,0,0,6,3Z" transform="translate(29 29)" fill="#2b72ff"/>
    </g>
  </g>
</svg>
