<svg id="Colored_Line_Prayer_Rug" data-name="Colored Line / Prayer Rug" xmlns="http://www.w3.org/2000/svg" xmlns:xlink="http://www.w3.org/1999/xlink" width="63" height="63" viewBox="0 0 63 63">
  <defs>
    <clipPath id="clip-path">
      <rect id="Colored_Line_Prayer_Rug_Background_Mask_" data-name="Colored Line / Prayer Rug (Background/Mask)" width="63" height="63" fill="none"/>
    </clipPath>
  </defs>
  <g id="Colored_Line_Prayer_Rug-2" data-name="Colored Line / Prayer Rug">
    <rect id="Colored_Line_Prayer_Rug_Background_Mask_2" data-name="Colored Line / Prayer Rug (Background/Mask)" width="63" height="63" fill="none"/>
    <g id="Colored_Line_Prayer_Rug-3" data-name="Colored Line / Prayer Rug" clip-path="url(#clip-path)">
      <path id="Vector" d="M1.313,30.187a1.312,1.312,0,1,1,0-2.625h15.75V23.7a1.312,1.312,0,0,1,1.312-1.312c1.142,0,3.938-2.914,3.938-7.3s-2.8-7.3-3.937-7.3a1.312,1.312,0,0,1-1.312-1.313V2.625H1.313A1.313,1.313,0,1,1,1.313,0H18.375a1.313,1.313,0,0,1,1.313,1.313V5.434c2.625,1.037,5.25,4.948,5.25,9.66s-2.625,8.623-5.25,9.66v4.121a1.312,1.312,0,0,1-1.313,1.312Z" transform="translate(23.625 19.688)" fill="#2ed9d6"/>
      <path id="Vector-2" data-name="Vector" d="M55.706,53H6.478A6.362,6.362,0,0,1,1.9,51.061,6.752,6.752,0,0,1,0,46.374V6.626A6.658,6.658,0,0,1,1.9,1.941,6.363,6.363,0,0,1,6.478,0H19.431a3.827,3.827,0,0,1,2.749,1.164,4,4,0,0,1,1.138,2.812v2.65H55.706a1.289,1.289,0,0,1,.916.386,1.352,1.352,0,0,1,0,1.875,1.291,1.291,0,0,1-.916.389H51.819v5.3h3.887a1.291,1.291,0,0,1,.916.389,1.352,1.352,0,0,1,0,1.875,1.289,1.289,0,0,1-.916.386H51.819V21.2h3.887a1.283,1.283,0,0,1,.916.389,1.349,1.349,0,0,1,0,1.872,1.291,1.291,0,0,1-.916.389H51.819v3.976h3.887a1.289,1.289,0,0,1,.916.386,1.352,1.352,0,0,1,0,1.875,1.291,1.291,0,0,1-.916.389H51.819v3.973h3.887a1.291,1.291,0,0,1,.916.389,1.352,1.352,0,0,1,0,1.875,1.291,1.291,0,0,1-.916.389H51.819v5.3h3.887a1.289,1.289,0,0,1,.916.386,1.352,1.352,0,0,1,0,1.875,1.291,1.291,0,0,1-.916.389H51.819v5.3h3.887a1.291,1.291,0,0,1,.916.389,1.352,1.352,0,0,1,0,1.875A1.289,1.289,0,0,1,55.706,53ZM6.478,42.4a3.819,3.819,0,0,0-2.749,1.164,4.048,4.048,0,0,0-1.138,2.81,4,4,0,0,0,1.138,2.812A3.819,3.819,0,0,0,6.478,50.35h42.75V9.275H23.319V43.725a4,4,0,0,1-1.138,2.812A3.827,3.827,0,0,1,19.431,47.7H6.478a1.274,1.274,0,0,1-.916-.389,1.333,1.333,0,0,1-.38-.937,1.348,1.348,0,0,1,.38-.935,1.266,1.266,0,0,1,.916-.389h3.885V42.4Zm6.478,0v2.65h6.476a1.273,1.273,0,0,0,.916-.389,1.346,1.346,0,0,0,0-1.875,1.272,1.272,0,0,0-.916-.386ZM6.478,2.65A3.827,3.827,0,0,0,3.729,3.814,4,4,0,0,0,2.591,6.626V41.075a6.436,6.436,0,0,1,3.887-1.324H19.431a3.752,3.752,0,0,1,1.3.239V3.976a1.332,1.332,0,0,0-.38-.937,1.273,1.273,0,0,0-.916-.389Z" transform="translate(3 6)" fill="#ffc329"/>
    </g>
  </g>
</svg>
