<svg id="Colored_Line_Moon_Stars" data-name="Colored Line / Moon &amp; Stars" xmlns="http://www.w3.org/2000/svg" xmlns:xlink="http://www.w3.org/1999/xlink" width="51" height="51" viewBox="0 0 51 51">
  <defs>
    <clipPath id="clip-path">
      <rect id="Colored_Line_Moon_Stars_Background_Mask_" data-name="Colored Line / Moon &amp; Stars (Background/Mask)" width="51" height="51" fill="none"/>
    </clipPath>
  </defs>
  <g id="Colored_Line_Moon_Stars-2" data-name="Colored Line / Moon &amp; Stars">
    <rect id="Colored_Line_Moon_Stars_Background_Mask_2" data-name="Colored Line / Moon &amp; Stars (Background/Mask)" width="51" height="51" fill="none"/>
    <g id="Colored_Line_Moon_Stars-3" data-name="Colored Line / Moon &amp; Stars" clip-path="url(#clip-path)">
      <path id="Vector" d="M23.577,47A23.517,23.517,0,0,1,0,23.5,23.513,23.513,0,0,1,14.555,1.789,23.522,23.522,0,0,1,23.577,0,29.076,29.076,0,0,1,31.4,1.069a1.084,1.084,0,0,1,.71.425,1.078,1.078,0,0,1-.228,1.511,1.1,1.1,0,0,1-.646.212,1.078,1.078,0,0,1-.159-.012A17.407,17.407,0,0,0,13.931,20.3,16.948,16.948,0,0,0,30.89,37.387h.188c5.62,0,9.351-1.222,12.1-3.963a1.087,1.087,0,0,1,.669-.3q.04,0,.081,0a1.084,1.084,0,0,1,.625.2,1.063,1.063,0,0,1,.34,1.332C41.142,42.269,32.974,47,23.577,47Zm0-44.864a21.364,21.364,0,1,0,0,42.728q.243.005.485.005A22.152,22.152,0,0,0,40.07,38.028a23.316,23.316,0,0,1-8.26,1.507c-.243,0-.489,0-.732-.011h-.2A19.043,19.043,0,0,1,11.788,20.3,19.392,19.392,0,0,1,24.906,2.136Z" transform="translate(2 2)" fill="#ffc329"/>
      <path id="Vector-2" data-name="Vector" d="M5.326,22.338a1.078,1.078,0,0,1-.616-.2,1.048,1.048,0,0,1-.392-.526,1.062,1.062,0,0,1-.01-.656l1.935-6.768L.4,9.327A1.064,1.064,0,0,1,.485,7.6a1.047,1.047,0,0,1,.574-.17l.063,0H7.857L10.768.646a1.064,1.064,0,0,1,1.564-.47,1.047,1.047,0,0,1,.39.47l2.913,6.789h6.736a1.056,1.056,0,0,1,1,.7,1.058,1.058,0,0,1,.027.641,1.046,1.046,0,0,1-.348.539l-5.843,4.867,1.976,6.778a1.064,1.064,0,0,1-.576,1.253,1.105,1.105,0,0,1-.45.1h-.036a1.066,1.066,0,0,1-.585-.182l-5.791-3.858L5.956,22.13a1.057,1.057,0,0,1-.622.208Zm6.349-6.405.071,0a1.066,1.066,0,0,1,.585.182L16.3,18.762,14.934,14.1a1.058,1.058,0,0,1,.34-1.061l4.165-3.475H14.934a1.05,1.05,0,0,1-.587-.178,1.071,1.071,0,0,1-.39-.47L11.745,3.76,9.536,8.912a1.065,1.065,0,0,1-.392.47,1.047,1.047,0,0,1-.585.178H4.053l4.123,3.431a1.058,1.058,0,0,1,.319.484,1.047,1.047,0,0,1,.019.579L7.188,18.708l3.974-2.645A1.068,1.068,0,0,1,11.674,15.933Z" transform="translate(25.442 8.502)" fill="#2ed9d6"/>
    </g>
  </g>
</svg>
