<svg xmlns="http://www.w3.org/2000/svg" width="94.604" height="97.054" viewBox="0 0 94.604 97.054">
  <g id="Group_75542" data-name="Group 75542" transform="translate(-1579.596 -1940.189)">
    <path id="Path_39076" data-name="Path 39076" d="M341.934,754.134a2.274,2.274,0,0,1-3.3,0l-12.3-12.237a2.318,2.318,0,1,1,3.3-3.253l12.3,12.214a2.275,2.275,0,0,1,0,3.275Zm3.3-3.139a74.554,74.554,0,0,1,13.942-10.622,105.231,105.231,0,0,1,11.9-6.414A8.438,8.438,0,0,0,375.619,729l9.485-27.112a6.346,6.346,0,0,0-10.508-6.551,6.825,6.825,0,0,0-1.137,1.569l-9.326,18.264a5.777,5.777,0,0,0-6.369-.978l-10.463,4.89a13.966,13.966,0,0,0-4.89,3.525c-.955,1.092-1.933,2.274-2.911,3.275a1.433,1.433,0,0,0,1.046,2.274,1.455,1.455,0,0,0,1.069-.477c.978-1.092,1.979-2.275,2.934-3.321a10.982,10.982,0,0,1,3.889-2.775l10.508-4.935a2.941,2.941,0,0,1,2.775,5.186l-7.392,4.321a1.433,1.433,0,0,0,1.433,2.457l7.392-4.344a5.754,5.754,0,0,0,2.684-6.3l10.19-19.947a3.571,3.571,0,0,1,4.367-1.66,3.457,3.457,0,0,1,2.07,4.413L373,727.864a5.755,5.755,0,0,1-3.093,3.344,111.169,111.169,0,0,0-23.541,14.6,28.3,28.3,0,0,0-2.729,2.57l-11.259-11.19c1.956-1.911,3.685-3.617,5.527-5.55a1.433,1.433,0,0,0-2.047-1.979c-1.911,2-3.685,3.753-5.732,5.754a5.163,5.163,0,0,0-6.937,6.619c-2.093,1.979-3.776,3.5-4.89,4.549a1.419,1.419,0,1,0,1.865,2.138c1.319-1.115,3.161-2.82,4.754-4.321l11.668,11.622c-1.524,1.706-3.23,3.685-4.231,5.027a1.41,1.41,0,0,0,1.137,2.275,1.388,1.388,0,0,0,1.16-.569c.819-1.115,2.411-2.979,4.549-5.3a5.186,5.186,0,0,0,6.1-6.528Z" transform="translate(1261.779 1246.74)" fill="#dbac60"/>
    <path id="Path_39077" data-name="Path 39077" d="M354.484,764.328a2.274,2.274,0,0,1-3.98,1.637l-12.3-12.237a2.316,2.316,0,0,1,3.3-3.253l12.3,12.237A2.275,2.275,0,0,1,354.484,764.328Zm38.666-58.591a6.368,6.368,0,0,0-7.87,3l-9.325,18.355a5.731,5.731,0,0,0-6.369-.978l-10.463,4.89a13.648,13.648,0,0,0-4.89,3.5c-3.912,4.549-7.938,8.734-12.282,12.919a5.186,5.186,0,0,0-6.937,6.641c-2.092,1.956-3.776,3.48-4.89,4.549a1.41,1.41,0,0,0-.137,2,1.433,1.433,0,0,0,2,.159c1.319-1.137,3.162-2.843,4.754-4.322l11.668,11.6c-1.524,1.706-3.23,3.685-4.231,5.027a1.433,1.433,0,0,0,1.16,2.275,1.386,1.386,0,0,0,1.137-.591c.819-1.115,2.411-2.98,4.549-5.3a5.186,5.186,0,0,0,6.1-6.528,75.538,75.538,0,0,1,13.943-10.622,108.976,108.976,0,0,1,11.9-6.414,8.552,8.552,0,0,0,4.549-4.958l4.754-13.647a1.421,1.421,0,1,0-2.684-.933c-8.006,21.9-1.433,12.032-20.084,23.518a80.612,80.612,0,0,0-14.034,10.6L344.2,749.293c4.276-4.14,8.3-8.347,12.169-12.828a10.987,10.987,0,0,1,3.889-2.775l10.508-4.913a2.934,2.934,0,0,1,3.366,4.708c.319,0-7.87,4.685-7.983,4.776a1.433,1.433,0,0,0,1.456,2.457l7.369-4.322a5.755,5.755,0,0,0,2.684-6.323l10.19-19.947a3.732,3.732,0,0,1,.637-.841,3.5,3.5,0,0,1,5.8,3.594l-2.957,8.484a1.433,1.433,0,0,0,.864,1.8,1.41,1.41,0,0,0,1.82-.864l2.957-8.461a6.323,6.323,0,0,0-3.73-8.1Z" transform="translate(1276.842 1261.885)" fill="#dbac60"/>
  </g>
</svg>
