<svg id="Component_273_1" data-name="Component 273 – 1" xmlns="http://www.w3.org/2000/svg" width="33.503" height="23.619" viewBox="0 0 33.503 23.619">
  <path id="Icon_ionic-ios-arrow-back" data-name="Icon ionic-ios-arrow-back" d="M15.321,18l8.937-8.93a1.688,1.688,0,1,0-2.391-2.384L11.742,16.8a1.685,1.685,0,0,0-.049,2.327L21.86,29.32a1.688,1.688,0,0,0,2.391-2.384Z" transform="translate(-11.251 -6.194)" fill="#dbdbdb"/>
  <path id="Icon_ionic-ios-arrow-back-2" data-name="Icon ionic-ios-arrow-back" d="M15.321,18l8.937-8.93a1.688,1.688,0,1,0-2.391-2.384L11.742,16.8a1.685,1.685,0,0,0-.049,2.327L21.86,29.32a1.688,1.688,0,0,0,2.391-2.384Z" transform="translate(8.749 -6.194)" fill="#dbdbdb"/>
</svg>
