<svg xmlns="http://www.w3.org/2000/svg" width="57.338" height="67.183" viewBox="0 0 57.338 67.183">
  <g id="Layer_9" data-name="Layer 9" transform="translate(0 0)">
    <path id="Path_39079" data-name="Path 39079" d="M195.47,663.219H148.8a5.893,5.893,0,0,1-5.907-5.893h0a5.921,5.921,0,0,1,5.893-5.893h41.377V653.7H171.535a1.2,1.2,0,1,0,0,2.388h18.629v2.276H178.992a1.187,1.187,0,0,0,0,2.374h12.317a1.187,1.187,0,0,0,1.187-1.187v-8.1h2.933v11.8Zm1.2-51.571a1.187,1.187,0,0,0-1.187,1.187v36.21h-45.5v-8.7a1.187,1.187,0,0,0-2.374,0v8.784a8.281,8.281,0,0,0-4.72,2.388V606.691a5.907,5.907,0,0,1,4.72-5.781v4.483a1.187,1.187,0,1,0,2.374,0V600.8h45.5v8.072a1.187,1.187,0,0,0,2.374,0V599.6a1.187,1.187,0,0,0-1.187-1.187H148.8a8.3,8.3,0,0,0-8.281,8.281v50.621h0a8.267,8.267,0,0,0,8.281,8.281h47.87a1.187,1.187,0,0,0,1.187-1.187V612.835A1.187,1.187,0,0,0,196.671,611.648Z" transform="translate(-140.52 -598.41)" fill="#fff"/>
    <path id="Path_39080" data-name="Path 39080" d="M173.5,641.32H145.667a1.187,1.187,0,0,0,0,2.374H173.5a1.187,1.187,0,0,0,0-2.374Z" transform="translate(-138.95 -581.399)" fill="#fff"/>
    <path id="Path_39081" data-name="Path 39081" d="M146.787,605.46a1.187,1.187,0,0,0-1.187,1.187v26.6a1.187,1.187,0,0,0,2.374,0v-26.6a1.187,1.187,0,0,0-1.187-1.187Z" transform="translate(-138.506 -595.615)" fill="#fff"/>
    <path id="Path_39082" data-name="Path 39082" d="M187.432,607.924a4.357,4.357,0,0,1-4.357-4.357,1.187,1.187,0,0,0-1.187-1.187H156.5a1.187,1.187,0,0,0-1.187,1.187,4.357,4.357,0,0,1-4.357,4.357,1.187,1.187,0,0,0-1.187,1.187v22.343a1.187,1.187,0,0,0,2.374,0V610.228a6.759,6.759,0,0,0,5.446-5.432h23.223a6.745,6.745,0,0,0,5.432,5.432V636.2a6.745,6.745,0,0,0-5.432,5.432H157.59a6.759,6.759,0,0,0-5.446-5.432v-.838a1.187,1.187,0,1,0-2.374,0v1.885a1.187,1.187,0,0,0,1.187,1.187,4.357,4.357,0,0,1,4.357,4.357,1.187,1.187,0,0,0,1.187,1.187h25.388a1.187,1.187,0,0,0,1.187-1.187,4.357,4.357,0,0,1,4.357-4.357,1.187,1.187,0,0,0,1.187-1.187V609.111A1.187,1.187,0,0,0,187.432,607.924Z" transform="translate(-136.853 -596.836)" fill="#fff"/>
    <path id="Path_39083" data-name="Path 39083" d="M162.155,638H146.794a1.2,1.2,0,0,0,0,2.388h15.361a1.2,1.2,0,1,0,0-2.388Z" transform="translate(-138.457 -582.717)" fill="#fff"/>
    <path id="Path_39084" data-name="Path 39084" d="M171.057,615.717a1.243,1.243,0,0,0-.349,1.061l.223,1.243-1.131-.586a1.259,1.259,0,0,0-.545-.14,1.4,1.4,0,0,0-.559.14l-1.117.586.209-1.243a1.2,1.2,0,0,0-.335-1.061l-.908-.88,1.243-.181A1.2,1.2,0,0,0,168.7,614l.559-1.131.559,1.131a1.145,1.145,0,0,0,.894.656l1.257.181Zm4.622-2.081a1.2,1.2,0,0,0-.964-.81l-3.016-.433-1.4-2.793a1.187,1.187,0,0,0-1.061-.67,1.215,1.215,0,0,0-1.075.67l-1.4,2.793-3.03.433a1.2,1.2,0,0,0-.964.81,1.215,1.215,0,0,0,.307,1.229l2.192,2.123L164.759,620a1.159,1.159,0,0,0,.461,1.159,1.2,1.2,0,0,0,1.257.1l2.709-1.4,2.7,1.4a1.3,1.3,0,0,0,.559.126,1.159,1.159,0,0,0,.7-.224,1.2,1.2,0,0,0,.475-1.159l-.517-3.016,2.192-2.123A1.215,1.215,0,0,0,175.679,613.636Z" transform="translate(-131.719 -594.239)" fill="#fff"/>
    <path id="Path_39085" data-name="Path 39085" d="M167.559,632.238a11.172,11.172,0,0,1-4.678-21.3,10.892,10.892,0,0,0,14.8,14.8A11.172,11.172,0,0,1,167.559,632.238Zm12.722-10.85a1.215,1.215,0,0,0-1.4.321A8.5,8.5,0,1,1,166.9,609.741a1.187,1.187,0,0,0,.335-1.4,1.173,1.173,0,0,0-1.229-.712,13.532,13.532,0,1,0,14.97,14.97A1.173,1.173,0,0,0,180.28,621.388Z" transform="translate(-135.175 -594.758)" fill="#fff"/>
  </g>
</svg>
