<svg xmlns="http://www.w3.org/2000/svg" width="47.715" height="45.316" viewBox="0 0 47.715 45.316">
  <path id="Path_39074" data-name="Path 39074" d="M361.889,543.819a1.978,1.978,0,0,0-1.582-1.345L346.223,540.5l-6.29-12.758a1.969,1.969,0,0,0-3.541,0L330.1,540.5l-14.064,1.978a1.978,1.978,0,0,0-1.088,3.363l10.187,9.89-2.413,14a1.978,1.978,0,0,0,2.868,1.978l12.58-6.607,12.58,6.607a1.977,1.977,0,0,0,2.868-2.116l-2.393-13.826.969-.93a1.972,1.972,0,0,0-2.789-2.789l-1.7,1.662a1.978,1.978,0,0,0-.574,1.741l1.978,11.1-9.89-5.242a1.979,1.979,0,0,0-1.82,0l-9.89,5.242,1.978-11.1a1.978,1.978,0,0,0-.574-1.741l-8.051-7.912,11.136-1.6a1.978,1.978,0,0,0,1.484-1.088L338.469,533l4.985,10.108a1.978,1.978,0,0,0,1.484,1.088l11.136,1.6-1.345,1.305a1.979,1.979,0,1,0,2.769,2.828l4.193-4.094A1.978,1.978,0,0,0,361.889,543.819Z" transform="translate(-314.363 -526.63)" fill="#dbac60"/>
</svg>
