<svg xmlns="http://www.w3.org/2000/svg" width="58.081" height="58.055" viewBox="0 0 58.081 58.055">
  <g id="Layer_7" data-name="Layer 7" transform="translate(-827.649 -541.529)">
    <path id="Path_39070" data-name="Path 39070" d="M366.869,622.664a.293.293,0,0,1,0,.427l-4.294,4.282v-9Zm-5.99,14.871a.3.3,0,0,1-.3.3h-6.1l6.368-6.356v6.1Zm-14.749,6.344a.293.293,0,0,1-.427,0h0l-4.282-4.282h9Zm-14.871-5.99a.305.305,0,0,1-.3-.3v-6.1l6.356,6.356ZM325,623.139a.293.293,0,0,1,0-.427l4.282-4.294v9Zm5.99-14.883a.3.3,0,0,1,.3-.3h6.1l-6.356,6.368v-6.1Zm14.749-6.295a.317.317,0,0,1,.427,0l4.294,4.294h-9Zm15.188,14.761v12.394l-8.771,8.771H339.763l-8.771-8.771V616.674l8.771-8.771h12.394Zm-.3-8.771a.3.3,0,0,1,.3.3v6.1l-6.368-6.368Zm0-1.7h-7.759c-8.369-8.125-5.465-8.088-13.809,0-11.662.171-9.588-1.854-9.759,9.759-8.125,8.381-8.088,5.453,0,13.809.171,11.662-1.854,9.588,9.759,9.759l5.49,5.49h0a2,2,0,0,0,2.83,0l5.49-5.49c11.65-.171,9.588,1.854,9.759-9.759,8.137-8.381,8.1-5.441,0-13.809v-7.759a1.988,1.988,0,0,0-2-2Z" transform="translate(510.736 -52.331)" fill="#dbac60"/>
    <path id="Path_39071" data-name="Path 39071" d="M374.694,622.595l-7.234-7.234a.305.305,0,0,1-.1-.22V604.906a1.988,1.988,0,0,0-2-2H355.126a.305.305,0,0,1-.22-.1c-10.918-10.394-6.368-10.43-17.311,0-15.224.72-11.967-3.2-12.541,12.553l-2.94,2.94a.863.863,0,1,0,1.22,1.22l2.94-2.94a1.988,1.988,0,0,0,.586-1.415V604.93a.3.3,0,0,1,.3-.3H337.4a1.989,1.989,0,0,0,1.415-.585l7.234-7.234a.293.293,0,0,1,.427,0l7.246,7.234a1.988,1.988,0,0,0,1.415.586h10.235a.3.3,0,0,1,.3.3v10.235a1.988,1.988,0,0,0,.586,1.415l7.234,7.246a.268.268,0,0,1,.1.207.305.305,0,0,1-.1.22l-7.234,7.234a1.989,1.989,0,0,0-.586,1.415v3.818a.854.854,0,1,0,1.7,0V632.9a.281.281,0,0,1,.1-.207l7.234-7.246a2,2,0,0,0,0-2.83Z" transform="translate(510.439 -53.47)" fill="#dbac60"/>
    <path id="Path_39072" data-name="Path 39072" d="M367.359,635.124a.854.854,0,0,0-.854.854v2.537a.3.3,0,0,1-.3.3H355.965a1.989,1.989,0,0,0-1.415.586l-7.283,7.246a.317.317,0,0,1-.427,0l-7.234-7.246a1.989,1.989,0,0,0-1.415-.586h-10.2a.3.3,0,0,1-.3-.3V628.281a1.988,1.988,0,0,0-.586-1.415l-7.246-7.185a.329.329,0,0,1-.085-.219.293.293,0,0,1,.085-.207l1.854-1.866a.83.83,0,0,0,0-1.22.842.842,0,0,0-1.22,0l-1.854,1.854a2,2,0,0,0,0,2.83l7.234,7.246a.268.268,0,0,1,.085.207V638.54a2.013,2.013,0,0,0,2.013,2.013H338.2a.268.268,0,0,1,.207.085c10.979,10.406,6.356,10.442,17.31,0a.293.293,0,0,1,.22-.085h10.235a2,2,0,0,0,2-2.013V636a.842.842,0,0,0-.817-.878Z" transform="translate(509.6 -48.872)" fill="#dbac60"/>
    <path id="Path_39073" data-name="Path 39073" d="M342.869,614.3c7.7.207,7.7,11.467,0,11.675C335.171,625.707,335.171,614.435,342.869,614.3Zm-7.539,5.831c.256,9.942,14.81,9.942,15.078,0-.268-9.991-14.822-9.991-15.078-.061Z" transform="translate(513.4 -49.592)" fill="#dbac60"/>
  </g>
</svg>
