<svg xmlns="http://www.w3.org/2000/svg" width="57.067" height="57.07" viewBox="0 0 57.067 57.07">
  <path id="Path_39075" data-name="Path 39075" d="M267.6,630.647a1.065,1.065,0,0,0-1.214.245,20.592,20.592,0,0,1-36.358-13.252,20.358,20.358,0,0,1,1-6.392A1.065,1.065,0,0,0,229,610.6a22.722,22.722,0,0,0,36.55,24.129A26.5,26.5,0,1,1,233.5,602.673a22.878,22.878,0,0,0-2.8,4.005,1.074,1.074,0,1,0,1.864,1.065,20.346,20.346,0,0,1,4.8-5.848,1.065,1.065,0,0,0-.8-1.875A28.624,28.624,0,1,0,268.247,631.7,1.065,1.065,0,0,0,267.6,630.647Z" transform="translate(-211.182 -600.014)" fill="#dbac60"/>
</svg>
