<svg xmlns="http://www.w3.org/2000/svg" width="20.583" height="20.588" viewBox="0 0 20.583 20.588">
  <g id="Group_75520" data-name="Group 75520" transform="translate(-172 -760.746)">
    <path id="Icon_awesome-wpforms" data-name="Icon awesome-wpforms" d="M20.583,4.235V20.853A1.962,1.962,0,0,1,18.6,22.838H1.985A1.969,1.969,0,0,1,0,20.848V4.235A1.962,1.962,0,0,1,1.985,2.25H18.6A1.961,1.961,0,0,1,20.583,4.235ZM18.869,20.848V4.235a.273.273,0,0,0-.266-.266h-.427L13.108,7.4,10.292,5.1,7.48,7.4,2.412,3.964H1.985a.273.273,0,0,0-.266.266V20.848a.273.273,0,0,0,.266.266H18.6A.267.267,0,0,0,18.869,20.848ZM6.9,9.325v1.7H3.524v-1.7Zm0,3.418v1.714H3.524V12.744Zm.51-6.768L9.892,3.968H4.447L7.411,5.976Zm9.648,3.349v1.7H8.054v-1.7Zm0,3.418v1.714H8.054V12.744ZM13.172,5.976l2.963-2.008H10.7l2.476,2.008Zm3.887,10.2v1.714H12.492V16.171h4.567Z" transform="translate(172 758.496)" fill="#393939"/>
  </g>
</svg>
