<svg id="Layer_7" data-name="Layer 7" xmlns="http://www.w3.org/2000/svg" width="74.225" height="74.191" viewBox="0 0 74.225 74.191">
  <path id="Path_39070" data-name="Path 39070" d="M379,628.914a.375.375,0,0,1,0,.546l-5.488,5.472V623.426Zm-7.655,19a.39.39,0,0,1-.39.39h-7.795l8.138-8.123v7.795ZM352.5,656.024a.375.375,0,0,1-.546,0h0l-5.472-5.472h11.505Zm-19-7.655a.389.389,0,0,1-.389-.389v-7.795l8.122,8.123Zm-8-18.848a.374.374,0,0,1,0-.545l5.472-5.488v11.505Zm7.654-19.019a.39.39,0,0,1,.39-.39h7.795l-8.122,8.137v-7.794ZM352,602.458a.405.405,0,0,1,.546,0l5.487,5.487H346.529Zm19.409,18.863V637.16L360.2,648.369H344.362L333.153,637.16v-15.9l11.209-11.209H360.2Zm-.39-11.209a.39.39,0,0,1,.39.39V618.3l-8.138-8.138Zm0-2.167h-9.915c-10.694-10.383-6.984-10.336-17.648,0-14.9.219-12.254-2.37-12.472,12.472-10.383,10.71-10.336,6.968,0,17.647.218,14.9-2.369,12.253,12.472,12.472l7.015,7.015h0a2.556,2.556,0,0,0,3.617,0l7.015-7.015c14.888-.219,12.253,2.37,12.472-12.472,10.4-10.71,10.351-6.953,0-17.647V610.5a2.54,2.54,0,0,0-2.557-2.557Z" transform="translate(-315.161 -592.105)" fill="#dbac60"/>
  <path id="Path_39071" data-name="Path 39071" d="M389.377,630.264l-9.245-9.245a.391.391,0,0,1-.124-.281V607.66a2.541,2.541,0,0,0-2.557-2.557h-13.08a.388.388,0,0,1-.28-.125c-13.953-13.282-8.138-13.329-22.122,0-19.456.919-15.294-4.084-16.026,16.042l-3.757,3.757a1.1,1.1,0,0,0,1.559,1.559l3.757-3.758a2.539,2.539,0,0,0,.749-1.808V607.691a.39.39,0,0,1,.39-.39h13.08a2.542,2.542,0,0,0,1.809-.748l9.245-9.245a.373.373,0,0,1,.546,0l9.26,9.245a2.543,2.543,0,0,0,1.809.748h13.08a.39.39,0,0,1,.39.39V620.77a2.54,2.54,0,0,0,.748,1.808l9.245,9.261a.343.343,0,0,1,.125.265.389.389,0,0,1-.125.28l-9.245,9.245a2.538,2.538,0,0,0-.748,1.808v4.879a1.091,1.091,0,1,0,2.166,0v-4.879a.361.361,0,0,1,.125-.265l9.245-9.26a2.557,2.557,0,0,0,0-3.617Z" transform="translate(-315.918 -594.999)" fill="#dbac60"/>
  <path id="Path_39072" data-name="Path 39072" d="M381.064,640.466a1.091,1.091,0,0,0-1.091,1.091V644.8a.39.39,0,0,1-.389.391H366.5a2.54,2.54,0,0,0-1.808.748l-9.307,9.26a.405.405,0,0,1-.546,0l-9.245-9.26a2.54,2.54,0,0,0-1.808-.748H330.756a.39.39,0,0,1-.39-.391V631.72a2.54,2.54,0,0,0-.748-1.807l-9.26-9.183a.421.421,0,0,1-.109-.28.374.374,0,0,1,.109-.266l2.369-2.385a1.1,1.1,0,1,0-1.559-1.559l-2.37,2.369a2.557,2.557,0,0,0,0,3.617l9.245,9.261a.342.342,0,0,1,.109.265v13.08a2.572,2.572,0,0,0,2.572,2.572H343.8a.346.346,0,0,1,.265.109c14.031,13.3,8.122,13.345,22.122,0a.377.377,0,0,1,.281-.109h13.079a2.558,2.558,0,0,0,2.557-2.572v-3.243a1.075,1.075,0,0,0-1.045-1.122Z" transform="translate(-318.049 -583.312)" fill="#dbac60"/>
  <path id="Path_39073" data-name="Path 39073" d="M344.964,614.765c9.837.265,9.837,14.654,0,14.919C335.127,629.341,335.127,614.936,344.964,614.765Zm-9.634,7.452c.327,12.705,18.926,12.705,19.268,0-.343-12.768-18.941-12.768-19.268-.079Z" transform="translate(-308.39 -585.143)" fill="#dbac60"/>
</svg>
