<svg id="Component_271_1" data-name="Component 271 – 1" xmlns="http://www.w3.org/2000/svg" width="28" height="29" viewBox="0 0 28 29">
  <ellipse id="Ellipse_6227" data-name="Ellipse 6227" cx="14" cy="14.5" rx="14" ry="14.5" fill="#f0f0f0"/>
  <g id="_20586133901582884275" data-name="20586133901582884275" transform="translate(6.608 6.392)">
    <path id="Path_39101" data-name="Path 39101" d="M6.056,3.58a1.132,1.132,0,0,0,2.222,0l.173-.891A1.193,1.193,0,0,0,7.269,1.335h-.2A1.193,1.193,0,0,0,5.883,2.688Z" transform="translate(-5.596 -1.335)" fill="#1d75b8"/>
    <path id="Path_39102" data-name="Path 39102" d="M10.3,33.137l-2.18-.528L6.8,31.113a1.619,1.619,0,0,0-1.427-.853h0a1.619,1.619,0,0,0-1.619,1.619v3.655a1.614,1.614,0,0,0,.5,1.172c0,.058.009.117.013.175.023.288.422,4.588.455,4.938l.021.237a.829.829,0,0,0,.886.754h0a.829.829,0,0,0,.768-.874c0-.079-.013-5.111-.011-5.139a1.616,1.616,0,0,0,.6-1.261V33.741l.169.139.076.063a.669.669,0,0,0,.315.142l2.485.385a.679.679,0,0,0,.264-1.332Z" transform="translate(-3.755 -26.479)" fill="#deab66"/>
    <path id="Path_39103" data-name="Path 39103" d="M6.056,3.58a1.132,1.132,0,0,0,2.222,0l.173-.891A1.193,1.193,0,0,0,7.269,1.335h-.2A1.193,1.193,0,0,0,5.883,2.688Z" transform="translate(-5.596 -1.335)" fill="#deab66"/>
    <path id="Path_39104" data-name="Path 39104" d="M46.7,10.6H41.9V9.989a.429.429,0,1,0-.859,0V10.6h-4.8a.556.556,0,0,0-.556.556v.1a.556.556,0,0,0,.556.556v1.934l.211.239.555.135V12.23h8.931v5.958H37.007v-1.16l-.766-.119v1.579a.465.465,0,0,0,.465.466h1.578a.648.648,0,0,0,.608.423h.174l-.837,5.389.641.1.853-5.488h1.426v5.439H41.8V19.378h1.426l.853,5.488.641-.1-.837-5.389h.174a.648.648,0,0,0,.608-.423H46.24a.465.465,0,0,0,.465-.465V11.817a.556.556,0,0,0,.556-.556v-.1A.556.556,0,0,0,46.7,10.6Z" transform="translate(-31.512 -8.485)" fill="#2d3e50"/>
  </g>
</svg>
