<svg xmlns="http://www.w3.org/2000/svg" width="29.331" height="27.029" viewBox="0 0 29.331 27.029">
  <g id="message" transform="translate(-11.481 -13.311)">
    <path id="Path_35072" data-name="Path 35072" d="M14.969,14.962H37.325a1.8,1.8,0,0,1,1.83,1.816v14.69a1.8,1.8,0,0,1-1.83,1.818H16.931a.828.828,0,0,0-.631.29L13.141,37.27V16.778a1.8,1.8,0,0,1,1.828-1.816Zm0-1.651a3.49,3.49,0,0,0-3.488,3.468V39.513a.83.83,0,0,0,1.461.535l4.37-5.112H37.324a3.488,3.488,0,0,0,3.488-3.468V16.779a3.488,3.488,0,0,0-3.488-3.468H14.969Z" transform="translate(0 0)" fill="#ffc329"/>
    <path id="Path_35073" data-name="Path 35073" d="M22.642,31.2a.825.825,0,1,0,0,1.649H41.264a.825.825,0,1,0,0-1.649Z" transform="translate(-5.805 -10.065)" fill="#ffc329"/>
    <path id="Path_35074" data-name="Path 35074" d="M22.642,43.321a.825.825,0,1,0,0,1.65h8.336a.825.825,0,1,0,0-1.65Z" transform="translate(-5.805 -16.881)" fill="#ffc329"/>
  </g>
</svg>
