<svg xmlns="http://www.w3.org/2000/svg" width="32.016" height="32.136" viewBox="0 0 32.016 32.136">
  <g id="target" transform="translate(-0.956 0)">
    <g id="Group_75442" data-name="Group 75442" transform="translate(8.533 8.86)">
      <g id="Group_75439" data-name="Group 75439">
        <g id="Group_75438" data-name="Group 75438">
          <path id="Path_35063" data-name="Path 35063" d="M122.307,142.4a.627.627,0,1,1,.616-.5A.632.632,0,0,1,122.307,142.4Z" transform="translate(-121.681 -141.147)" fill="#ffc329"/>
        </g>
      </g>
      <g id="Group_75441" data-name="Group 75441" transform="translate(11.47 12.889)">
        <g id="Group_75440" data-name="Group 75440" transform="translate(0)">
          <path id="Path_35064" data-name="Path 35064" d="M305.055,347.747a.627.627,0,1,1,.62-.529A.633.633,0,0,1,305.055,347.747Z" transform="translate(-304.427 -346.494)" fill="#ffc329"/>
        </g>
      </g>
    </g>
    <g id="Group_75444" data-name="Group 75444" transform="translate(0.956 0.001)">
      <g id="Group_75443" data-name="Group 75443" transform="translate(0 0)">
        <path id="Path_35065" data-name="Path 35065" d="M32.933,4.666a.627.627,0,0,0-.542-.408L28.969,4,28.713.581a.628.628,0,0,0-1.07-.4L24.909,2.919a2.52,2.52,0,0,0-.739,1.7c0,.011,0,.023,0,.034l.037,2.1a14.3,14.3,0,1,0,2.047,2.025l2.071.033h.033a2.521,2.521,0,0,0,1.7-.739l2.735-2.735a.628.628,0,0,0,.145-.662ZM25.8,3.807,27.564,2.04l.173,2.309L25.46,6.628l-.035-1.983a1.268,1.268,0,0,1,.371-.838ZM15.239,30.881A13.027,13.027,0,1,1,23.932,8.158L22.478,9.612A10.965,10.965,0,0,0,11.52,7.528a.628.628,0,1,0,.426,1.181A9.711,9.711,0,0,1,21.589,10.5l-1.456,1.456a7.664,7.664,0,1,0-1.41,12.725.628.628,0,1,0-.572-1.117,6.328,6.328,0,0,1-2.911.7,6.411,6.411,0,1,1,4-11.415l-1.464,1.464a4.363,4.363,0,1,0,.9.871l1.459-1.459a6.4,6.4,0,0,1,1.186,6.145.628.628,0,0,0,1.191.4,7.66,7.66,0,0,0-1.487-7.431l1.454-1.454a9.719,9.719,0,1,1-15.1.753.628.628,0,0,0-1.014-.74,10.975,10.975,0,1,0,17-.9L24.825,9.04a13.021,13.021,0,0,1-9.586,21.841Zm3.1-13.027a3.1,3.1,0,1,1-1.469-2.636l-2,2a.628.628,0,1,0,.888.888l2.026-2.026A3.084,3.084,0,0,1,18.342,17.854ZM29.165,7.176a1.269,1.269,0,0,1-.839.371L26.35,7.515,27.556,6.31c.013-.013.026-.027.038-.042l1.03-1.032,2.308.173Z" transform="translate(-0.956 -0.001)" fill="#ffc329"/>
      </g>
    </g>
  </g>
</svg>
